The A-Team (Extended) (2010) (1080p)  


Verenigde Staten
Avontuur / Actie
117 minuten

geregisseerd door Joe Carnahan
met Bradley Cooper, Liam Neeson en Sharlto Copley

Een groep Irak-veteranen is op de vlucht voor het Amerikaanse leger. Deze groep, die bekend staat als 'The A-Team', probeert zo snel mogelijk hun naam te zuiveren, omdat ze ten onrechte te boek staan als gevaarlijke criminelen. Ze worden beschuldigd van een ernstige misdaad die ze niet begaan hebben.
     
 English

Storyline
Four American soldiers who are in Iraq are sent on a mission to recover plates for printing 100 dollar bills that were used to print a billion dollars. After doing the job and returning to the base their commanding officer is killed in an explosion and the plates are stolen by another operative. They would be court martialed and sent to different prisons. 6 months later, the leader, Hannibal Smith is visited by a CIA spook who tells him he knows where the man who took the plates is and wants him and his men to recover it. So he helps him escape and he breaks out the others and they go after the plates. But after doing it, they discover that the spook might not be ok. And a military intelligence officer who was involved with one of them is pursuing them.



Bron: The.A-Team.EXTENDED.1080p.BluRay.x264-ZMG
Ondertiteling: Engels en Nederlands
Audio: AC3 @ 640 kbps en 5.1 DTS @ 1509 kbps
Video: 1920 x 816 @ 9999 kbps 
Categorie : Beeld 
Formaat : x264HD 
Bron : Retail

Format                           : Matroska
File size                        : 11.3 GiB
Duration                         : 2h 13mn
Overall bit rate                 : 12.1 Mbps
Encoded date                     : UTC 2010-10-15 19:31:39
Writing application              : mkvmerge v4.3.0 ('Escape from the Island') built on Sep  5 2010 10:30:51
Writing library                  : libebml v1.0.0 + libmatroska v1.0.0

Video
ID                               : 1
Format                           : AVC
Format/Info                      : Advanced Video Codec
Format profile                   : High@L4.1
Format settings, CABAC           : Yes
Format settings, ReFrames        : 5 frames
Muxing mode                      : Container profile=Unknown@4.1
Codec ID                         : V_MPEG4/ISO/AVC
Duration                         : 2h 13mn
Bit rate                         : 9 999 Kbps
Width                            : 1 920 pixels
Height                           : 816 pixels
Display aspect ratio             : 2.35:1
Frame rate                       : 23.976 fps
Color space                      : YUV
Chroma subsampling               : 4:2:0
Bit depth                        : 8 bits
Scan type                        : Progressive
Bits/(Pixel*Frame)               : 0.266
Stream size                      : 9.10 GiB (80%)
Writing library                  : x264 core 98 r1649 20cbe10
Encoding settings                : cabac=1 / ref=5 / deblock=1:-1:-1 / analyse=0x3:0x133 / me=umh / subme=6 / psy=1 / psy_rd=1.00:0.00 / mixed_ref=1 / me_range=16 / chroma_me=1 / trellis=1 / 8x8dct=1 / cqm=0 / deadzone=21,11 / fast_pskip=1 / chroma_qp_offset=-2 / threads=16 / sliced_threads=0 / nr=0 / decimate=1 / interlaced=0 / constrained_intra=0 / bframes=3 / b_pyramid=2 / b_adapt=2 / b_bias=0 / direct=3 / weightb=1 / weightp=2 / keyint=250 / keyint_min=25 / scenecut=40 / intra_refresh=0 / rc_lookahead=40 / rc=2pass / mbtree=1 / bitrate=9999 / ratetol=1.0 / qcomp=0.60 / qpmin=10 / qpmax=51 / qpstep=4 / cplxblur=20.0 / qblur=0.5 / ip_ratio=1.40 / aq=1:1.00
Language                         : English

Audio #1
ID                               : 2
Format                           : AC-3
Format/Info                      : Audio Coding 3
Mode extension                   : CM (complete main)
Codec ID                         : A_AC3
Duration                         : 2h 13mn
Bit rate mode                    : Constant
Bit rate                         : 640 Kbps
Channel(s)                       : 6 channels
Channel positions                : Front: L C R, Side: L R, LFE
Sampling rate                    : 48.0 KHz
Bit depth                        : 16 bits
Stream size                      : 611 MiB (5%)
Title                            : English AC3
Language                         : English

Audio #2
ID                               : 3
Format                           : DTS
Format/Info                      : Digital Theater Systems
Codec ID                         : A_DTS
Duration                         : 2h 13mn
Bit rate mode                    : Constant
Bit rate                         : 1 510 Kbps
Channel(s)                       : 6 channels
Channel positions                : Front: L C R, Side: L R, LFE
Sampling rate                    : 48.0 KHz
Bit depth                        : 24 bits
Stream size                      : 1.41 GiB (12%)
Title                            : English DTS
Language                         : English

Text #1
ID                               : 4
Format                           : UTF-8
Codec ID                         : S_TEXT/UTF8
Codec ID/Info                    : UTF-8 Plain Text
Title                            : Nederlands
Language                         : Dutch

Text #2
ID                               : 5
Format                           : UTF-8
Codec ID                         : S_TEXT/UTF8
Codec ID/Info                    : UTF-8 Plain Text
Title                            : English - SDH
Language                         : English

Text #3
ID                               : 6
Format                           : UTF-8
Codec ID                         : S_TEXT/UTF8
Codec ID/Info                    : UTF-8 Plain Text
Title                            : English - Forced
Language                         : English


 

 
Genre : Actie
Avontuur
 
Weblink :  http://www.moviemeter.nl/film/62797 
Weblink :  http://www.imdb.com/title/tt0429493
      
*****************************************

Brought to you by 
2Lions Team
